<?xml version="1.0" encoding="utf-8"?>
<!-- Generator: Adobe Illustrator 26.5.3, SVG Export Plug-In . SVG Version: 6.00 Build 0)  -->
<svg version="1.1" xmlns="http://www.w3.org/2000/svg" xmlns:xlink="http://www.w3.org/1999/xlink" x="0px" y="0px"
	 viewBox="0 0 317 312" style="enable-background:new 0 0 317 312;" xml:space="preserve">
<style type="text/css">
	.st0{fill:#E33839;}
	.st1{fill:#DD3137;}
	.st2{fill:#A6112A;}
	.st3{fill:#15252D;}
	.st4{fill:#FC7258;}
	.st5{fill:#EB4F47;}
	.st6{fill:#BF1E30;}
	.st7{fill:#F25C4D;}
	.st8{fill:#F46050;}
	.st9{fill:#EA4C47;}
	.st10{fill:#C01E30;}
	.st11{fill:#C32B3D;}
	.st12{fill:#6BCB52;}
	.st13{fill:#C3393A;}
	.st14{fill:#C02F30;}
	.st15{fill:#BF2D30;}
	.st16{fill:#C3342D;}
	.st17{fill:#D0E1E5;}
	.st18{fill:#CE2434;}
	.st19{fill:#B92C30;}
	.st20{fill:#BB4044;}
	.st21{fill:#CD2033;}
	.st22{fill:#EB4341;}
	.st23{fill:#DA2E37;}
	.st24{fill:#FA6951;}
	.st25{fill:#F8CA37;}
	.st26{fill:#F6BF10;}
	.st27{fill:#2695E2;}
	.st28{fill:#1577D4;}
	.st29{fill:#D62A36;}
	.st30{fill:#AF2529;}
	.st31{fill:#34B4F2;}
	.st32{fill:#5CD1FD;}
	.st33{fill:#4BBEFE;}
	.st34{fill:#3EB0F8;}
	.st35{fill:#FDBE01;}
	.st36{fill:#3FCCFD;}
</style>
<g id="Capa_1">
	<g>
		<g>
			<path class="st0" d="M14.12,67.05c0.41-5.12,1.49-10.1,3.23-14.94c6.41-0.44,9.31-5.02,12.51-9.82
				c4.8-7.21,11.28-12.94,18.35-17.97c6.14-3.57,12.84-5.58,19.76-6.66c9.04-1.4,18.14-2.17,27.32-2.16
				c44.42,0.09,88.85,0.03,133.27,0.05c8.84,0,17.59,1.09,26.29,2.52c3.78,0.62,7.43,1.81,10.94,3.36
				c8.55,4.24,16.12,9.72,21.95,17.41c3.25,4.13,5.7,8.74,7.67,13.58c0.73,1.78,2.27,3.94-0.48,5.56c-2.26,0.77-4.6,0.58-6.91,0.58
				c-15.43,0.02-30.86,0.2-46.28-0.04c-16.36-0.26-32,2.6-46.93,9.32c-1.06,0.48-2.14,0.91-3.26,1.2
				c-6.16,1.05-11.41,4.22-16.62,7.38c-4.08,2.47-8,4.79-12.89,1.96c-1.69-0.98-3.57-0.81-5.05,0.67c-1.62,1.62-3.8,1.87-5.76,2.7
				c-4.55,1.95-7.9,1.04-10.66-3.15c-1.64-2.48-8.24-2.53-10.09-0.37c-1.78,2.08-4.06,1.5-5.57-1.7c-1.62-3.44-2.6-7.17-4.62-10.44
				c-2.61-6.68-5.93-12.74-11.21-17.93c-9.6-9.42-20.9-12.85-33.97-11.72c-1.38,0.12-2.55,0.63-3.72,1.27
				C52.9,42.41,43.51,55.24,39.78,73.13c-0.26,0.61-0.67,1.14-0.98,1.72c-4.85,9-7.64,7.73-15.11,1.21
				c-1.34-1.17-2.11-3.14-4.26-2.91C14.66,73.64,13.78,70.9,14.12,67.05z"/>
			<path class="st1" d="M121.11,66.04c2.8,2.21,3.02,5.71,4.31,8.67c0.79,1.8,1.11,3.93,4.03,3.99c-0.59-3.31-1.12-6.7,3.94-3.18
				c2.28,1.59,4.36,0.24,5.88-1.94c3.61,9.01,10.61,10.64,17.01,3.97c2.22-2.32,4.47-1.57,6.26-0.4c4.81,3.12,8.19,0.31,12-2
				c4.88-2.95,9.81-5.9,15.52-7.09c0.18,2.46-2.06,2.8-3.46,3.68c-5.5,3.44-10.78,7.18-15.82,11.28
				c-8.42,6.04-15.32,13.73-22.5,21.08c-8.63,8.83-18.19,16.48-28.27,23.55c-10.83,6.46-22.61,9.67-35.13,9.81
				c-18.61,0.21-37.23,0.09-55.85,0.04c-7.41-0.02-8.2-0.97-8.43-8.35c-0.29-9.12-1.34-18.22-1.07-27.37
				c0.07-2.26-0.21-4.59-2.57-5.92c-1.68,1.25-1.32,2.87-1.28,4.26c0.42,12.97-1.67,25.86-1.07,38.84c0.08,1.65,0.03,3.33-0.64,4.91
				c-0.17,0.26-0.34,0.51-0.51,0.76c-0.28,0.12-0.56,0.23-0.85,0.35c-0.42-25.4-0.45-50.79,0.74-76.17c0.03-0.6,0.48-1.18,0.74-1.76
				c1.2,2.88,1.75,6.49,6.51,4.66c1.09-0.42,2.88,0.58,3.14,1.96c0.75,4.01,4.97,3.93,7.18,6.29c1.58,1.69,3.51-0.66,4.73-2.18
				c1.22-1.51,1.38-3.81,3.43-4.73c1.92,1.9,1.18,4.35,1.36,6.61c0.17,2.12-0.37,4.36,1.06,6.26c1.55,1.9,1.25,4.43,2.21,6.53
				c6.17,13.4,16.12,22.08,31.03,24.08c14.04,1.88,26.07-2.6,36.07-12.54c1.86-1.85,3.74-3.82,3.67-6.78
				c0.06-0.99,0.51-1.79,1.25-2.43c3.57-2.01,4.03-5.51,4.35-9.08c0.06-0.48,0.16-0.94,0.27-1.4c0.75-4.91,0.36-9.83,0.25-14.74
				c-0.13-0.48-0.21-0.97-0.26-1.47C120.35,67.3,120.52,66.59,121.11,66.04z"/>
			<path class="st2" d="M306.07,247.04c-3.44,28.51-22.6,49.17-50.51,54.2c-11.59,2.09-23.29,3.31-35.11,3.3
				c-42.79-0.06-85.58,0.4-128.36-0.25c-14.78-0.22-29.92-1.21-43.62-8.13c-20.22-10.21-31.7-26.66-34.37-49.19
				c-1.03-5.91-0.71-11.92-0.81-17.85c-0.37-21.47-0.15-42.94-0.13-64.41c0-1.48-0.2-3.01,0.61-4.39c4-0.79,5.94,0.62,8.51,6.19
				c0.55,18.97-0.03,37.95,0.3,56.93c0.18,10.32,0.84,20.65,3.66,30.65c5.93,21.07,20.26,33.06,41.4,37.05
				c8.82,1.66,17.83,2.23,26.83,2.24c42.47,0.04,84.93,0.04,127.4,0c12.16-0.01,24.37-0.27,36.16-3.56
				c21.02-5.86,33.18-20.11,37.21-41.28c1.74-9.15,2.44-18.46,2.42-27.82c-0.08-30.64-0.06-61.27-0.01-91.91
				c0.01-6.3,2.43-8.69,7.84-8.13c0.57,0.06,0.81,0.52,1.15,0.87c1.03,2.03,0.76,4.23,0.76,6.38c0.02,33.44,0.13,66.88-0.09,100.32
				C307.27,234.5,306.62,240.79,306.07,247.04z"/>
			<path class="st3" d="M306.03,66.61c1.46,3.49,0.92,7.16,0.92,10.78c-1.27,1.46-2.97,1.21-4.62,1.2
				c-20.75-0.16-41.51,0.16-62.26-0.13c-18.35-0.25-35.18,3.97-49.95,15.24c-0.79,0.6-1.66,1.1-2.53,1.57
				c-5.35,3.09-9.78,7.34-14.13,11.63c-12.27,12.08-23.99,24.76-38.2,34.72c-16.38,11.07-34.58,15.9-54.19,15.87
				c-22.43-0.04-44.87,0.16-67.3-0.1c-2.41-3.94-0.6-8.21-0.99-12.31c0.22-0.03,0.38-0.15,0.48-0.35
				c7.64-0.54,15.29-0.09,22.94-0.15c13.82-0.1,27.65-0.3,41.46,0.04c19.64,0.48,37.56-4.38,53.63-15.77
				c12.28-8.66,22.34-19.74,32.99-30.19c5.55-5.44,10.51-11.58,17.63-15.24c17.34-12.43,36.65-18.22,58-17.89
				c19.6,0.3,39.21,0.05,58.82,0.08C301.2,65.59,303.74,65.26,306.03,66.61z"/>
			<path class="st4" d="M267,23.1c-13.63-4.89-27.79-5.97-42.12-5.97c-45.62,0.01-91.24-0.19-136.86,0.13
				c-12.23,0.09-24.51,1.38-35.9,6.67c-1.64,0.76-3.3,1.46-4.95,2.18c-4.57,1.51-9.07,3.62-14.08,1.94
				c6.72-8.9,16.49-12.67,26.63-15.83c12.22-3.81,24.83-3.22,37.38-3.21c48.89,0.04,97.78-0.14,146.66,0.34
				c13.1,0.13,25.43,4.67,36.59,11.76c1.48,0.94,2.48,2.61,3.7,3.95C278.06,26.96,272.48,25.5,267,23.1z"/>
			<path class="st5" d="M185.98,94.75c15.77-12.65,33.89-18.05,53.96-17.88c20.09,0.18,40.18,0.02,60.27,0.06
				c2.25,0,4.49,0.29,6.74,0.45c1.35,6.87,1.75,13.79,1.75,20.79c-0.04,43.45,0.04,86.9,0.02,130.35c0,2.19,0.88,4.76-1.54,6.44
				c-1.27-1.64-0.62-3.54-0.62-5.3c-0.05-34.12,0.14-68.25-0.16-102.37c-0.07-8.42-0.58-16.89-1.28-25.3
				c-0.41-4.34-0.16-8.72-0.52-13.07c-0.25-1.45,0.3-2.98-0.82-5.04c-4.21,5.54-10.17,4.62-15.88,4.62
				c-13.44,0.02-26.9,0.41-40.33-0.1c-15.38-0.59-30.09,1.65-44.23,7.72c-4.94,1.27-10.01,1.45-15.06,1.68
				C186.44,97.88,183.61,98.11,185.98,94.75z"/>
			<path class="st6" d="M306.03,66.61c-6.46,0.13-12.92,0.34-19.38,0.36c-15.43,0.05-30.87,0.19-46.3-0.02
				c-20.71-0.29-39.67,4.96-56.64,16.98c-0.81,0.58-1.55,1.26-2.65,1.15c-2.91-0.58-5.05,1.97-7.86,1.91c-1.49-0.03-3.1,0.34-4.15-1
				c-1.28-1.63,0.44-2.68,1.03-3.93c6.19-5.35,13.22-9.48,19.99-13.99c9.68-3.87,19.24-8.13,29.74-9.42
				c4.75-0.59,9.43-1.63,14.28-1.61c20.64,0.08,41.28,0.04,61.92,0.04c4.27,1.79,8.02,4.18,9.83,8.74
				C306.11,66.02,306.18,66.29,306.03,66.61z"/>
			<path class="st7" d="M33.08,28.06c4.66-0.88,9.26-2.19,14.08-1.94c-7.68,6.81-15.29,13.68-20.37,22.83
				c-2.12,3.82-5.63,4.08-9.45,3.15C19.8,42.27,25.21,34.36,33.08,28.06z"/>
			<path class="st8" d="M267,23.1c5.68,0.66,11.36,1.31,17.04,1.97c5.52,4.6,10.7,9.48,14.08,15.96c-4.59,3.39-6.77,3.01-11.12-1.95
				C281.04,32.87,274.57,27.3,267,23.1z"/>
			<path class="st9" d="M287,39.09c3.32,2.84,6.97,3.83,11.12,1.95c4.55,7.64,6.91,15.97,7.72,24.78c-3.28-2.92-6.55-5.83-9.83-8.74
				C293.87,50.64,290.22,44.97,287,39.09z"/>
			<path class="st10" d="M12.79,145.06c0.81,3.92-0.85,8.06,1.08,11.87c1.35,0.6,1.76,1.63,1.34,3.01c-1.82,1.6-1.04,3.74-1.04,5.64
				c-0.06,27.13-0.05,54.26-0.06,81.4c-1.71-4.45-1.26-9.19-1.36-13.75c-0.64-29.41-0.49-58.83-0.12-88.25
				C12.63,144.98,12.79,145.06,12.79,145.06z"/>
			<path class="st11" d="M305.98,101.11c1.69,1.67,0.91,3.79,0.91,5.68c0.07,41.4,0.07,82.8,0.1,124.2c0,1.33,0.12,2.65,0.18,3.97
				c-0.23,4.03,0.41,8.15-1.1,12.07c-0.03-42-0.06-83.99-0.09-125.99C303.52,114.41,303.54,107.76,305.98,101.11z"/>
			<path class="st12" d="M185.03,54.84c-3.63-0.09-6.86-3.44-6.9-7.16c-0.04-3.91,3.37-7.32,7.3-7.29c3.75,0.03,6.97,3.67,6.78,7.66
				C192.02,51.8,188.7,54.93,185.03,54.84z"/>
			<path class="st13" d="M121.11,66.04c-0.01,0.67-0.03,1.33-0.04,2c-1.63,0.37-2.16-0.98-2.97-1.88
				c-2.69-5.32-5.11-10.71-9.32-15.19c-9.25-9.85-20.45-13.71-33.72-12.09c-1.33,0.16-2.65,0.34-3.85-0.47
				c-0.42-0.42-0.45-0.88-0.1-1.36c0.75-1.56,2.09-1.86,3.7-1.99c19.07-1.6,33.28,6.19,43.05,22.35
				C119.43,60,120.74,62.9,121.11,66.04z"/>
			<path class="st14" d="M127.08,47.36c0.09-5.47,3.55-8.49,9.51-8.3c4.34,0.14,8.34,4.32,8.43,8.81c0.08,3.75-5.47,9.26-9.2,9.14
				C130.89,56.84,126.99,52.54,127.08,47.36z"/>
			<path class="st15" d="M71.11,37.05c0,0.35,0.01,0.7,0.01,1.06c-0.41,1.26-1.49,1.65-2.59,2.09c-13,5.25-21.5,14.48-24.9,28.21
				c-0.36,1.44-0.58,2.94-1.61,4.11c-1.11,3.27-0.58,6.58-0.2,9.86c0.19,1.66,0.71,3.29-0.7,4.68c-3.24-1.86-1.68-4.99-1.95-7.6
				c-0.21-2.12-0.06-4.28-0.06-6.41C38.36,59.4,55.9,37.11,71.11,37.05z"/>
			<path class="st16" d="M160.68,57.04c-3.95,0.06-9.42-4.87-9.59-8.65c-0.19-4.28,4.65-9.8,8.77-10.01
				c4.92-0.25,10.16,4.74,10.14,9.64C169.99,51.8,164.63,56.98,160.68,57.04z"/>
			<path class="st17" d="M41.26,72.24c2.55-12.73,8.62-23.03,20.04-29.92c3.14-1.89,6.73-2.39,9.82-4.21
				c15.04-2.57,28.24,0.71,38.95,12.12c4.29,4.57,6.88,10.07,9.07,15.82c3.38,6.93,2.07,14.05,0.89,21.16
				c-0.77,2.89-1.32,5.89-3.87,7.91c-0.34,0.6-0.68,1.21-1.03,1.81c-1.54,6.05-6.08,9.66-10.87,12.88
				c-19.67,13.18-45.21,8.3-57.34-11.09C41.89,90.69,39.67,81.81,41.26,72.24z"/>
			<path class="st10" d="M133.01,128.97c-13.22,10.74-28.61,16.31-45.37,16.81c-23.23,0.7-46.5,0.23-69.75,0.27
				c-1.69,0-3.34-0.03-4.63-1.34c-0.89-16.14,1.35-32.21,0.91-48.34c-0.03-1.28-0.27-2.81,1.57-3.19c1.49-0.31,2.57,0.45,3.47,1.52
				c1.45,1.74,2.07,3.75,1.92,6.02c-0.68,10.48,1.21,20.88,0.94,31.35c-0.08,3.1,1.08,4,4.07,3.99c20.48-0.1,40.97,0.25,61.44-0.18
				c10.5-0.22,20.56-3.16,29.81-8.43c1.13-0.64,2.45-0.97,3.67-1.44c2.47-1.27,4.61-3.12,7.23-4.12c2-0.77,4.23-1.71,5.9,0.29
				c1.49,1.79,0.35,3.71-0.66,5.44C133.3,128.04,133.13,128.5,133.01,128.97z"/>
			<path class="st18" d="M133.01,128.97c-0.6-0.44-0.77-1.02-0.54-1.73c0.49-1.5,2.39-3.05,1.03-4.51
				c-1.69-1.84-3.76,0.01-5.55,0.51c-2.36,0.67-4.59,1.82-6.88,2.76c18.11-12.67,31.92-30.13,48.99-43.96
				c-1.21,3.26-0.31,4.82,3.27,3.73c2.16-0.66,4.38-1.06,6.41-2.37c1.69-1.09,1.82,0.32,1.31,1.66
				c-10.76,8.15-19.52,18.42-29.24,27.67C145.81,118.45,139.91,124.29,133.01,128.97z"/>
			<path class="st19" d="M41.26,72.24c-0.32,12.28,2.73,23.31,11.66,32.29c17.23,17.31,45.13,15.19,59.65-4.58
				c0.78-1.06,1.7-2,2.56-3c1.85,1.68,0.35,2.89-0.54,4.25c-5.04,7.76-12.5,12.02-21.05,14.8c-18.77,6.11-33.8,0.22-46.15-14.26
				c-3.59-4.21-5.24-9.33-6.26-14.68c-0.62-4.85-1.42-9.69-0.95-14.61c0.01-0.13,0.16-0.34,0.25-0.34
				C40.7,72.11,40.98,72.19,41.26,72.24z"/>
			<path class="st20" d="M118.67,87.96c2.28-7.26,1.83-14.58,0.46-21.91c0.64,0.66,1.29,1.33,1.93,1.99c0,0,0.03,0.04,0.03,0.04
				c0.79,5.66,0.77,11.32,0.01,16.97c-0.01,0.32-0.03,0.65-0.05,0.97C120.24,86.65,120.85,89.02,118.67,87.96z"/>
			<path class="st13" d="M118.67,87.96c0.8-0.64,1.59-1.29,2.39-1.93c0.84,3.34-1.4,5.83-2.41,8.65c-0.47,1.3-1.58,0.72-2.49,0.44
				C117,92.74,117.83,90.35,118.67,87.96z"/>
			<path class="st13" d="M121.11,85.06c0-5.66-0.01-11.32-0.01-16.97C122.73,73.74,122.68,79.4,121.11,85.06z"/>
			<path class="st21" d="M305.98,101.11c0,6.65,0,13.3,0.01,19.94c-6.27,0.5-7.13,4.28-7.09,9.87c0.24,32.79,0.36,65.6-0.05,98.39
				c-0.15,11.54-1.27,23.25-6.51,33.89c-6.67,13.55-17.03,23.12-31.67,27.62c-10.72,3.29-21.86,3.92-32.91,3.98
				c-45.95,0.23-91.91,0.36-137.86-0.07c-13.83-0.13-28.03-0.75-40.46-8.22c-11.56-6.95-20.36-16.39-24.18-29.74
				c-3.03-10.59-3.98-21.47-4.06-32.41c-0.13-19.48,0-38.96,0.02-58.43c0.6-0.23,1.08-0.08,1.44,0.44c1.18,2.16,0.89,4.53,0.89,6.83
				c0.03,15.29,0,30.59,0.03,45.88c0.01,4.8-0.06,3.84,4.39,3.29c6.14-0.76,7.22-4.28,7.63-9.21c0.18-2.09,0.59-4.36,2.95-5.4
				c2.38,1.09,1.81,3.32,1.85,5.19c0.11,5.66-0.18,11.33,0.12,16.97c0.18,3.41-1.96,8.08,2.42,9.86c4.12,1.68,5.65-3.12,8.14-5.21
				c5.21-4.36,9.13-10.13,14.95-13.86c4.2-0.88,8.36-2.05,12.31,1.03c1.07,0.84,2.73,0.66,3.41-0.87c1.39-3.11,3.64-2.91,6.22-1.88
				c4.78,1.9,9.76,1.5,14.74,1.37c2.61-0.07,5.01,0.25,7.63,1.39c2.81,1.21,6.29-0.63,9.47-1.07c6.36-0.88,12.57-0.99,18.61,1.47
				c1.12,0.46,2.29,0.85,3.38,0.33c5.75-2.75,12.03-2.36,18.03-2.44c6.05-0.07,11.94,1.3,18.27,0.25c3.79-0.63,8.41,2.04,12.84,2.82
				c5.22,0.92,8.83-4.29,13.29-2.95c4.72,1.42,8.93,2,13.4-0.21c1.18-0.58,2.51-0.89,3.75-1.35c1.88-0.7,3.58-0.47,5.13,0.84
				c4.04,3.41,8.56,2.72,13.48,2.59c5.92-0.16,11.54-2.85,17.55-1.59c2.46,0.52,4.98,0.09,7.39-0.7c3.23-1.06,6.4-1.82,9.58,0.24
				c0.98,0.63,2.35,0.76,3.4,0.27c4.69-2.18,8.68-0.14,12.81,1.74c4.83,2.2,5.9,1.49,5.91-3.84c0.02-17.14,0.09-34.28-0.05-51.43
				c-0.34-14.94-0.35-29.88-0.08-44.8c0.16-8.44,0.86-16.88,1.09-25.33c0.18-6.5,3.29-8.97,8.38-7.55
				C305.99,93.06,305.98,97.08,305.98,101.11z"/>
			<path class="st5" d="M22.13,166.04c-0.3-0.03-0.6-0.07-0.9-0.12c-2-1.99-4.01-3.98-6.01-5.98c-0.44-1.01-0.89-2.01-1.33-3.02
				c1.48-1.62,3.44-0.88,5.16-0.89c16.94-0.07,33.89-0.51,50.81,0.07c23.63,0.81,45.95-2.85,65.99-16.24
				c2.46-0.15,4.61,1.13,6.96,1.58c3.05,0.59,2.16,2.99,1.12,5c-6.11,6.12-13.73,9.76-21.57,12.97c-4.76,1.95-9.64,3.59-14.62,4.97
				c-8.78,1.94-17.61,3.28-26.64,3.21c-17.1-0.13-34.21-0.02-51.31-0.06C27.14,167.54,24.39,167.92,22.13,166.04z"/>
			<path class="st22" d="M143.07,145.99c0.89-2.03,2.12-4.43-1.95-3.45c-2.72,0.65-3.63-1.6-5.29-2.67
				c16.64-12.21,29.83-28.18,45.43-41.53c1.5-1.28,3.14-2.4,4.72-3.59c-0.39,1.5-0.51,2.37,1.73,2.03
				c5.09-0.78,10.23-1.18,15.35-1.74c0.38,1.79-1.14,2.26-2.18,2.9c-11.25,6.97-20.81,15.94-29.93,25.41
				c-7.27,7.54-14.96,14.63-23.15,21.15C146.46,145.57,145.24,147.39,143.07,145.99z"/>
			<path class="st23" d="M143.07,145.99c7.09-3.5,12.32-9.38,17.95-14.61c12.14-11.28,22.84-24.15,37.12-33.03
				c1.67-1.04,3.27-2.21,4.91-3.31C214,90.07,225.32,86.87,237.5,87c15.77,0.17,31.54,0.07,47.31,0.03
				c7.45-0.02,15.52,1.92,20.28-7.13c0.3,0.32,0.6,0.64,0.9,0.96c0,2.73,0,5.45,0,8.18c-5.1,0.42-6.72,2.26-7.01,7.51
				c-1.31,23.8-0.91,47.62-1,71.43c-5.22-1.16-4.08-6.04-5.6-9.64c-1.16,2.63-2.41,5.02-4.66,0.95c-0.42-0.76-1.26-1.67-1.93-1.19
				c-3.23,2.31-7.75,0.8-10.68,3.63c-2.62,2.54-4.28,1.77-6.5-0.78c-2.64-3.03-6.05-4.55-10.14-1.99c-2.37,1.48-5.09,1.5-7.76,0.89
				c-5.75-1.33-11.34-2.29-16.35,2.3c-1.5,1.37-3.55,0.73-5.05-0.56c-3.7-3.16-6.94-3.78-11.87-1.26
				c-4.42,2.26-10.25,4.65-15.18-0.55c-1.11-1.18-3.32-1.7-4.69-0.76c-3.14,2.14-5.88,1.14-8.92-0.06
				c-3.43-1.35-6.88-0.77-10.13,0.94c-3.66,1.93-7.2,2.56-10.56-0.68c-1.53-1.47-3.25-1.24-5.08-0.38
				c-3.51,1.66-7.57,1.28-11.04,2.24c-6.4,1.78-11.38-0.73-16.98-2.37c-3.43-1.01-7.12,0.75-10.26,2.91
				c-4.89,3.36-10.12,3.64-15.54,1.35c10.4-3.91,21.08-7.25,30.14-14.03C140.52,147.98,141.79,146.98,143.07,145.99z"/>
			<path class="st24" d="M141.14,48.21c0.14,3.46-1.08,5.75-4.96,5.81c-3.76,0.06-6.24-2.35-6.07-6.12
				c0.17-3.69,2.16-5.75,5.89-5.83C139.74,41.98,141.17,43.76,141.14,48.21z"/>
			<path class="st25" d="M165.01,52.03c-2.91,3.1-5.91,3.07-8.99,0.24c-0.64-1.18-0.9-2.44-0.93-3.77c-0.1-4.19,1.88-6.45,5.63-6.36
				c3.53,0.08,5.38,2.24,5.31,6.18C166.02,49.65,165.85,50.93,165.01,52.03z"/>
			<path class="st26" d="M165.01,52.03c-0.29-3.61,1.66-8.83-4.56-8.8c-5.85,0.03-4.01,5.11-4.41,8.55
				c-0.02,0.16-0.01,0.33-0.02,0.49c-3.37-3.19-2.91-6.49,0-9.56c2.56-2.69,6.93-2.58,9.32,0.29
				C167.83,45.96,168.49,49.15,165.01,52.03z"/>
			<path class="st27" d="M107.1,95.04c-6.88,10.39-16.84,14.85-28.93,13.84c-11.24-0.94-20.05-6.34-25.25-16.77
				c0.03-3.16-1.23-6.07-1.73-9.14c-3.94-23.98,17.17-42.61,40.09-34.6c14.52,5.07,23.93,22.84,18.8,36.71
				C108.89,88.3,107.75,91.61,107.1,95.04z"/>
			<path class="st28" d="M107.1,95.04c-1.61-0.26-1.41-0.71-0.91-2.27c1.72-5.4,4.31-10.66,3.89-16.58
				c-1.22-16.86-15.87-31.18-34.71-27.73C58.71,51.5,49.3,67.62,52.74,83.3c0.55,2.53,0.42,5.13,2.02,7.55
				c1.2,1.83-0.73,1.46-1.83,1.25c-6.34-11.45-5.71-22.81,1.55-33.4c7.8-11.39,19.17-15.86,32.64-13.3
				c13.09,2.49,21.59,10.75,24.96,23.66C114.5,78.35,113.06,87.2,107.1,95.04z"/>
			<path class="st29" d="M109.08,162.99c6.06-0.03,11.86,0.48,17.39-3.88c5.07-4,11.12-1.72,16.41,1.25
				c0.84,0.47,1.76,1.88,2.49,1.24c5.6-4.85,13.88,0.65,19.28-5.18c1.19-1.28,2.75,0.36,3.76,1.45c2.42,2.61,4.89,3.49,8.29,1.43
				c5-3.02,10.25-3.47,15.46-0.27c1.34,0.82,2.16,0.49,3.36-0.65c3.11-2.94,6.52-0.95,8.86,0.95c4.02,3.24,13.39,1.33,15.43-4.07
				c1.83,1.68,3.54,3.59,6.37,2.25c1.63-0.77,2.16,0.64,2.88,1.86c1.91,3.2,4.38,3.57,6.46,0.31c1.31-2.06,2.56-2.01,4.81-1.95
				c4.22,0.11,8.38-0.22,12.5,1.19c1.13,0.39,2.9,0.25,3.85-0.4c6-4.1,10.47-2.83,13.96,3.37c0.74,1.31,2.18,1.1,2.82-0.14
				c1.48-2.85,3.63-3.54,6.61-2.84c0.69,0.16,1.6-0.32,2.34-0.66c5.36-2.41,5.36-2.42,7.61,2.21c0.23-0.19,0.57-0.33,0.68-0.57
				c0.63-1.42-1.97-4.17,1.2-4.28c1.78-0.07,2.5,2.49,2.44,4.3c-0.11,3.36,1.29,5.89,3.62,8.08c0,17.3,0.02,34.59,0,51.89
				c0,5.48-0.95,6.12-6.17,4.15c-1.53-0.58-2.96-1.43-4.47-2.09c-2.68-1.17-5.17-2.71-8.27-0.35c-1.15,0.87-4.22,0.88-5.19-0.03
				c-2.96-2.78-5.74-1.52-8.61-0.49c-2.09,0.75-4.21,1.19-6.35,0.86c-4.1-0.64-7.96,0.77-11.81,1.07
				c-5.78,0.45-11.75,2.06-17.66,0.58c-0.32-0.08-0.74-0.18-0.89-0.41c-4.56-7.16-9.82-1.81-14.53-0.48
				c-2.8,0.79-4.96,1.36-7.34-0.56c-2.08-1.68-4.15-1.45-6.4-0.02c-6.67,4.25-13.38,2.74-19.96-0.29c-2.48-1.14-4.79-1.39-6.98,0.33
				c-2.61,2.06-5.13,2.12-7.64-0.05c-1.25-1.08-2.74-1.41-4.2-1.1c-6.66,1.42-13.85-0.47-20.16,3.24c-0.65,0.38-1.85,0.69-2.31,0.36
				c-6.42-4.58-13.19-3.35-20.26-1.95c-2.66,0.53-5.69-0.92-7.07,2.74c-0.03,0.08-1.12,0-1.23-0.23c-3.21-7-8.99-2.64-13.6-2.94
				c-3.75-0.25-7.19-1.25-10.62-2.53c-1.34-0.5-3.04-1.22-2.95,0.8c0.25,5.57-3.12,3.55-5.52,2.71c-2.92-1.03-5.41-5.05-8.83-0.72
				c-0.12,0.16-1.89-0.98-2.89-1.52c-0.12-0.18-0.23-0.37-0.35-0.55c-0.13-2.42-1.62-3.81-3.66-4.77
				c-4.76-3.58-8.39-8.35-12.92-12.18c-5.83-4.93-7.48-4.42-9.08,2.85c-0.15,0.66-0.45,1.23-0.99,1.65
				c-2.71,3.29-2.54,7.35-2.96,11.24c-0.29,2.64,0.36,5.9-4.3,3.39c-2.05-1.1-3.94,1.09-5.76,2.12c-1.04,0.58-1.29,2.72-3.04,1.81
				c-1.47-0.76-0.88-2.37-0.88-3.62c-0.04-18.95-0.04-37.9-0.04-56.85c17.13-0.02,34.28-0.3,51.4,0.05
				C85.53,166.33,97.31,164.93,109.08,162.99z"/>
			<path class="st2" d="M159.54,274.92c-10.81,0-21.62-0.12-32.43,0.06c-4.14,0.07-6.81-1.89-6.68-5.6c0.12-3.33,3.2-4.5,6.63-4.48
				c21.95,0.08,43.9,0.1,65.85-0.02c3.79-0.02,6.63,1.41,6.64,5.03c0.01,3.61-2.79,5.13-6.6,5.08
				C181.83,274.81,170.68,274.92,159.54,274.92z"/>
			<path class="st30" d="M39.11,207.95c0-0.66,0.02-1.33,0.01-1.99c-0.02-2.48-0.43-5.22,2.4-6.51c2.79-1.28,4.99-0.06,7.09,1.98
				c4.74,4.6,9.64,9.04,14.48,13.54c1.48,1.76,3.07,3.46,3.02,5.99c0,0,0,0,0,0c-6.34,6.5-12.69,13-19.03,19.51
				c-1.44,1.48-3.07,1.96-4.91,0.87c-1.91-1.13-3.16-2.49-3.11-5.1C39.24,226.81,39.12,217.38,39.11,207.95z"/>
			<path class="st31" d="M100.16,67.01c1.1,6.07,2.65,11.96,4.63,17.87c2.25,6.72-4.73,15.8-12.17,18.92
				c-8.67,3.63-16.96,2.57-25.24-0.85c-9.39-3.88-13.21-15.18-8.2-24.01c0.72-1.27,2.02-2.26,1.99-3.92
				c6.83,1.07,13.34-2.05,20.17-1.43c3.29,0.3,6.6,0.25,9.87,1c6.68,1.54,7.02,1.25,7.72-5.46C99.09,68.28,99.42,67.53,100.16,67.01
				z"/>
			<path class="st32" d="M100.1,69.06c0.07,8.53-0.47,8.94-8.61,7.05c-7.53-1.76-15.1-1.75-22.54,0.25
				c-3.01,0.81-5.47,0.78-7.79-1.33c0-1.33-0.01-2.65-0.01-3.98c0.8-3.23,3-4.47,6.17-4.49c9.24-0.08,18.48-0.13,27.72,0.03
				C97.07,66.63,99,67.02,100.1,69.06z"/>
			<path class="st33" d="M100.1,69.06c-2.44-1.51-5.17-0.97-7.79-0.98c-8.31-0.05-16.62,0.11-24.92-0.09
				c-2.82-0.07-4.75,0.83-6.24,3.07c-0.36-3.44,0.6-6.45,2.95-9.01c0.96-1.55,2.46-2.01,4.16-2.36c8.59-1.77,17.17-0.4,25.75-0.11
				c1.21,0.04,2.1,0.92,3.11,1.48c1.66,1.66,2.5,3.73,3.04,5.96C100.14,67.69,100.12,68.38,100.1,69.06z"/>
			<path class="st34" d="M97.11,61.05c-11.02-0.06-22.1-2.21-33.02,0.99c3.49-8.75,18.41-14.19,28.71-5.72
				C94.43,57.67,95.68,59.46,97.11,61.05z"/>
			<path class="st21" d="M66.11,220.96c-1.01-2-2.02-3.99-3.02-5.99C65.64,216.19,67.97,217.52,66.11,220.96z"/>
			<path class="st35" d="M41.28,220.56c0-5.32,0-10.65,0-15.97c0-1.37,0.14-2.74,1.52-3.44c1.49-0.76,2.51,0.24,3.47,1.19
				c5.08,5.03,10.13,10.09,15.23,15.09c2.11,2.06,2.05,3.82-0.1,5.89c-5.03,4.85-9.91,9.86-14.87,14.78
				c-0.92,0.91-1.78,2.15-3.37,1.61c-1.76-0.6-1.89-2.12-1.89-3.68C41.28,230.87,41.28,225.72,41.28,220.56z"/>
			<path class="st36" d="M79.66,80.02c5.88,0.04,10.98,1.31,15.62,4.14c5.35,3.27,5.91,8.34,1.5,12.71
				c-7.89,7.81-23.18,8.13-31.48,0.64c-5.13-4.63-4.03-10.86,2.91-14.4C71.86,81.24,75.8,79.7,79.66,80.02z"/>
		</g>
	</g>
</g>
<g id="Capa_2">
</g>
</svg>
